<mxfile host="Electron" modified="2023-06-16T20:02:56.185Z" agent="Mozilla/5.0 (Windows NT 10.0; Win64; x64) AppleWebKit/537.36 (KHTML, like Gecko) draw.io/21.4.0 Chrome/112.0.5615.204 Electron/24.5.1 Safari/537.36" etag="91KkgT1xQtGBLD3cz8Cz" version="21.4.0" type="device">
  <diagram name="Страница 1" id="Dwt0RInNQwHjLRDilIlX">
    <mxGraphModel dx="1596" dy="868" grid="1" gridSize="10" guides="1" tooltips="1" connect="1" arrows="1" fold="1" page="1" pageScale="1" pageWidth="827" pageHeight="1169" math="0" shadow="0">
      <root>
        <mxCell id="0" />
        <mxCell id="1" parent="0" />
        <mxCell id="-B6dtIqJ7kkdnBFxNLt7-14" value="" style="edgeStyle=orthogonalEdgeStyle;rounded=0;orthogonalLoop=1;jettySize=auto;html=1;" edge="1" parent="1" source="-B6dtIqJ7kkdnBFxNLt7-1" target="-B6dtIqJ7kkdnBFxNLt7-2">
          <mxGeometry relative="1" as="geometry" />
        </mxCell>
        <mxCell id="-B6dtIqJ7kkdnBFxNLt7-1" value="Начало" style="rounded=1;whiteSpace=wrap;html=1;" vertex="1" parent="1">
          <mxGeometry x="354" y="40" width="120" height="60" as="geometry" />
        </mxCell>
        <mxCell id="-B6dtIqJ7kkdnBFxNLt7-15" value="" style="edgeStyle=orthogonalEdgeStyle;rounded=0;orthogonalLoop=1;jettySize=auto;html=1;" edge="1" parent="1" source="-B6dtIqJ7kkdnBFxNLt7-2" target="-B6dtIqJ7kkdnBFxNLt7-3">
          <mxGeometry relative="1" as="geometry" />
        </mxCell>
        <mxCell id="-B6dtIqJ7kkdnBFxNLt7-2" value="array[]" style="shape=parallelogram;perimeter=parallelogramPerimeter;whiteSpace=wrap;html=1;fixedSize=1;" vertex="1" parent="1">
          <mxGeometry x="354" y="130" width="120" height="60" as="geometry" />
        </mxCell>
        <mxCell id="-B6dtIqJ7kkdnBFxNLt7-16" value="" style="edgeStyle=orthogonalEdgeStyle;rounded=0;orthogonalLoop=1;jettySize=auto;html=1;" edge="1" parent="1" source="-B6dtIqJ7kkdnBFxNLt7-3" target="-B6dtIqJ7kkdnBFxNLt7-4">
          <mxGeometry relative="1" as="geometry" />
        </mxCell>
        <mxCell id="-B6dtIqJ7kkdnBFxNLt7-3" value="min_index = 0;&lt;br&gt;max_index = 0;" style="shape=parallelogram;perimeter=parallelogramPerimeter;whiteSpace=wrap;html=1;fixedSize=1;" vertex="1" parent="1">
          <mxGeometry x="354" y="220" width="120" height="60" as="geometry" />
        </mxCell>
        <mxCell id="-B6dtIqJ7kkdnBFxNLt7-10" value="" style="edgeStyle=orthogonalEdgeStyle;rounded=0;orthogonalLoop=1;jettySize=auto;html=1;" edge="1" parent="1" source="-B6dtIqJ7kkdnBFxNLt7-4" target="-B6dtIqJ7kkdnBFxNLt7-5">
          <mxGeometry relative="1" as="geometry" />
        </mxCell>
        <mxCell id="-B6dtIqJ7kkdnBFxNLt7-23" value="" style="edgeStyle=orthogonalEdgeStyle;rounded=0;orthogonalLoop=1;jettySize=auto;html=1;" edge="1" parent="1" source="-B6dtIqJ7kkdnBFxNLt7-4" target="-B6dtIqJ7kkdnBFxNLt7-22">
          <mxGeometry relative="1" as="geometry" />
        </mxCell>
        <mxCell id="-B6dtIqJ7kkdnBFxNLt7-4" value="i = 1, i &amp;lt; array.length, i++" style="shape=hexagon;perimeter=hexagonPerimeter2;whiteSpace=wrap;html=1;fixedSize=1;" vertex="1" parent="1">
          <mxGeometry x="334" y="310" width="160" height="80" as="geometry" />
        </mxCell>
        <mxCell id="-B6dtIqJ7kkdnBFxNLt7-11" value="" style="edgeStyle=orthogonalEdgeStyle;rounded=0;orthogonalLoop=1;jettySize=auto;html=1;" edge="1" parent="1" source="-B6dtIqJ7kkdnBFxNLt7-5" target="-B6dtIqJ7kkdnBFxNLt7-7">
          <mxGeometry relative="1" as="geometry" />
        </mxCell>
        <mxCell id="-B6dtIqJ7kkdnBFxNLt7-17" style="edgeStyle=orthogonalEdgeStyle;rounded=0;orthogonalLoop=1;jettySize=auto;html=1;entryX=0.5;entryY=0;entryDx=0;entryDy=0;" edge="1" parent="1" source="-B6dtIqJ7kkdnBFxNLt7-5" target="-B6dtIqJ7kkdnBFxNLt7-8">
          <mxGeometry relative="1" as="geometry">
            <mxPoint x="530" y="630" as="targetPoint" />
            <Array as="points">
              <mxPoint x="530" y="460" />
              <mxPoint x="530" y="620" />
            </Array>
          </mxGeometry>
        </mxCell>
        <mxCell id="-B6dtIqJ7kkdnBFxNLt7-5" value="array[i] &amp;gt; array[max_index]" style="rhombus;whiteSpace=wrap;html=1;" vertex="1" parent="1">
          <mxGeometry x="314" y="420" width="200" height="80" as="geometry" />
        </mxCell>
        <mxCell id="-B6dtIqJ7kkdnBFxNLt7-12" value="" style="edgeStyle=orthogonalEdgeStyle;rounded=0;orthogonalLoop=1;jettySize=auto;html=1;" edge="1" parent="1" source="-B6dtIqJ7kkdnBFxNLt7-7" target="-B6dtIqJ7kkdnBFxNLt7-8">
          <mxGeometry relative="1" as="geometry" />
        </mxCell>
        <mxCell id="-B6dtIqJ7kkdnBFxNLt7-7" value="max_index = i;" style="rounded=0;whiteSpace=wrap;html=1;" vertex="1" parent="1">
          <mxGeometry x="354" y="530" width="120" height="60" as="geometry" />
        </mxCell>
        <mxCell id="-B6dtIqJ7kkdnBFxNLt7-13" value="" style="edgeStyle=orthogonalEdgeStyle;rounded=0;orthogonalLoop=1;jettySize=auto;html=1;" edge="1" parent="1" source="-B6dtIqJ7kkdnBFxNLt7-8" target="-B6dtIqJ7kkdnBFxNLt7-9">
          <mxGeometry relative="1" as="geometry" />
        </mxCell>
        <mxCell id="-B6dtIqJ7kkdnBFxNLt7-20" style="edgeStyle=orthogonalEdgeStyle;rounded=0;orthogonalLoop=1;jettySize=auto;html=1;entryX=1;entryY=0.5;entryDx=0;entryDy=0;" edge="1" parent="1" source="-B6dtIqJ7kkdnBFxNLt7-8" target="-B6dtIqJ7kkdnBFxNLt7-18">
          <mxGeometry relative="1" as="geometry">
            <Array as="points">
              <mxPoint x="550" y="660" />
              <mxPoint x="550" y="850" />
            </Array>
          </mxGeometry>
        </mxCell>
        <mxCell id="-B6dtIqJ7kkdnBFxNLt7-8" value="array[i] &amp;lt; array[min_index]" style="rhombus;whiteSpace=wrap;html=1;" vertex="1" parent="1">
          <mxGeometry x="299" y="620" width="230" height="80" as="geometry" />
        </mxCell>
        <mxCell id="-B6dtIqJ7kkdnBFxNLt7-19" value="" style="edgeStyle=orthogonalEdgeStyle;rounded=0;orthogonalLoop=1;jettySize=auto;html=1;" edge="1" parent="1" source="-B6dtIqJ7kkdnBFxNLt7-9" target="-B6dtIqJ7kkdnBFxNLt7-18">
          <mxGeometry relative="1" as="geometry" />
        </mxCell>
        <mxCell id="-B6dtIqJ7kkdnBFxNLt7-9" value="min_index = i;" style="rounded=0;whiteSpace=wrap;html=1;" vertex="1" parent="1">
          <mxGeometry x="354" y="730" width="120" height="60" as="geometry" />
        </mxCell>
        <mxCell id="-B6dtIqJ7kkdnBFxNLt7-21" style="edgeStyle=orthogonalEdgeStyle;rounded=0;orthogonalLoop=1;jettySize=auto;html=1;entryX=0;entryY=0.5;entryDx=0;entryDy=0;" edge="1" parent="1" source="-B6dtIqJ7kkdnBFxNLt7-18" target="-B6dtIqJ7kkdnBFxNLt7-4">
          <mxGeometry relative="1" as="geometry">
            <Array as="points">
              <mxPoint x="290" y="850" />
              <mxPoint x="290" y="350" />
            </Array>
          </mxGeometry>
        </mxCell>
        <mxCell id="-B6dtIqJ7kkdnBFxNLt7-18" value="i++;" style="rounded=0;whiteSpace=wrap;html=1;" vertex="1" parent="1">
          <mxGeometry x="354" y="820" width="120" height="60" as="geometry" />
        </mxCell>
        <mxCell id="-B6dtIqJ7kkdnBFxNLt7-25" value="" style="edgeStyle=orthogonalEdgeStyle;rounded=0;orthogonalLoop=1;jettySize=auto;html=1;" edge="1" parent="1" source="-B6dtIqJ7kkdnBFxNLt7-22" target="-B6dtIqJ7kkdnBFxNLt7-24">
          <mxGeometry relative="1" as="geometry" />
        </mxCell>
        <mxCell id="-B6dtIqJ7kkdnBFxNLt7-22" value="min_index;&lt;br&gt;max_index;" style="shape=document;whiteSpace=wrap;html=1;boundedLbl=1;" vertex="1" parent="1">
          <mxGeometry x="540" y="310" width="120" height="80" as="geometry" />
        </mxCell>
        <mxCell id="-B6dtIqJ7kkdnBFxNLt7-24" value="Конец" style="rounded=1;whiteSpace=wrap;html=1;" vertex="1" parent="1">
          <mxGeometry x="707" y="320" width="120" height="60" as="geometry" />
        </mxCell>
        <mxCell id="-B6dtIqJ7kkdnBFxNLt7-26" value="&lt;h1&gt;&lt;ol style=&quot;box-sizing: border-box; margin-top: 0px; margin-bottom: 10px; color: rgb(44, 45, 48); font-family: Roboto, &amp;quot;San Francisco&amp;quot;, &amp;quot;Helvetica Neue&amp;quot;, Helvetica, Arial; font-size: 15px; font-weight: 400; background-color: rgb(255, 255, 255);&quot;&gt;&lt;li style=&quot;box-sizing: border-box;&quot;&gt;Нахождение индексов максимального и минимального элемента массива (16)&lt;/li&gt;&lt;/ol&gt;&lt;/h1&gt;" style="text;html=1;strokeColor=none;fillColor=none;spacing=5;spacingTop=-20;whiteSpace=wrap;overflow=hidden;rounded=0;" vertex="1" parent="1">
          <mxGeometry x="100" y="40" width="190" height="120" as="geometry" />
        </mxCell>
      </root>
    </mxGraphModel>
  </diagram>
</mxfile>
